<svg width="16" height="14" viewBox="0 0 16 14" fill="none" xmlns="http://www.w3.org/2000/svg">
<path d="M13.9026 6.12521C12.3714 6.13116 11.8135 6.98071 11.3681 8.03401C10.7094 10.39 9.76425 12.5405 7.53906 13.1074C10.2561 14.8921 15.7772 12.0392 15.9812 8.31866C16.1264 7.16975 15.4774 6.10768 13.9026 6.12521Z" fill="#008C86"/>
<path d="M10.7857 6.05813C12.281 6.05813 13.4932 4.95556 13.4932 3.59547C13.4932 2.23538 12.281 1.13281 10.7857 1.13281C9.29034 1.13281 8.07812 2.23538 8.07812 3.59547C8.07812 4.95556 9.29034 6.05813 10.7857 6.05813Z" fill="#01D9D1"/>
<path d="M4.45756 12.7144C5.9529 12.7144 7.16511 11.6118 7.16511 10.2517C7.16511 8.89163 5.9529 7.78906 4.45756 7.78906C2.96221 7.78906 1.75 8.89163 1.75 10.2517C1.75 11.6118 2.96221 12.7144 4.45756 12.7144Z" fill="#01D9D1"/>
<path d="M2.09843 7.54767C3.62966 7.54172 4.18752 6.69217 4.63291 5.63887C5.29159 3.28288 6.25501 1.21614 8.4802 0.649197C5.76313 -1.13555 0.223863 1.63373 0.0197995 5.35422C-0.125356 6.50313 0.523629 7.5652 2.09843 7.54767Z" fill="#008C86"/>
</svg>
