<svg xmlns="http://www.w3.org/2000/svg" width="15" height="15" viewBox="0 0 15 15" fill="#ffffff">
<path fill-rule="evenodd" clip-rule="evenodd" d="M7.5 0C7.87656 0 8.18182 0.30526 8.18182 0.681818V6.81818H14.3182C14.6947 6.81818 15 7.12344 15 7.5C15 7.87656 14.6947 8.18182 14.3182 8.18182H8.18182V14.3182C8.18182 14.6947 7.87656 15 7.5 15C7.12344 15 6.81818 14.6947 6.81818 14.3182V8.18182H0.681818C0.30526 8.18182 0 7.87656 0 7.5C0 7.12344 0.30526 6.81818 0.681818 6.81818H6.81818V0.681818C6.81818 0.30526 7.12344 0 7.5 0Z" fill="#f0e8e8"/>
</svg>