<svg width="16" height="17" viewBox="0 0 16 17" fill="none" xmlns="http://www.w3.org/2000/svg">
<path d="M0.5 6.70573C0.5 5.45573 0.777778 4.3099 1.33333 3.26823C1.88889 2.22656 2.63194 1.35851 3.5625 0.664063L4.3125 1.66406C3.53472 2.2474 2.91319 2.97309 2.44792 3.84115C1.98264 4.7092 1.75 5.66406 1.75 6.70573H0.5ZM14.25 6.70573C14.25 5.66406 14.0174 4.7092 13.5521 3.84115C13.0868 2.97309 12.4653 2.2474 11.6875 1.66406L12.4375 0.664063C13.3681 1.35851 14.1111 2.22656 14.6667 3.26823C15.2222 4.3099 15.5 5.45573 15.5 6.70573H14.25ZM1.33333 14.3307V13.0807H3V6.7474C3 5.58073 3.34375 4.53559 4.03125 3.61198C4.71875 2.68837 5.625 2.10851 6.75 1.8724V1.41406C6.75 1.06684 6.87153 0.771701 7.11458 0.528646C7.35764 0.28559 7.65278 0.164062 8 0.164062C8.34722 0.164062 8.64236 0.28559 8.88542 0.528646C9.12847 0.771701 9.25 1.06684 9.25 1.41406V1.8724C10.375 2.10851 11.2812 2.68837 11.9688 3.61198C12.6562 4.53559 13 5.58073 13 6.7474V13.0807H14.6667V14.3307H1.33333ZM8 16.8307C7.54167 16.8307 7.14931 16.6675 6.82292 16.3411C6.49653 16.0148 6.33333 15.6224 6.33333 15.1641H9.66667C9.66667 15.6224 9.50347 16.0148 9.17708 16.3411C8.85069 16.6675 8.45833 16.8307 8 16.8307ZM4.25 13.0807H11.75V6.7474C11.75 5.70573 11.3854 4.82031 10.6562 4.09115C9.92708 3.36198 9.04167 2.9974 8 2.9974C6.95833 2.9974 6.07292 3.36198 5.34375 4.09115C4.61458 4.82031 4.25 5.70573 4.25 6.7474V13.0807Z" fill="#333333"/>
</svg>
