<svg width="12" height="12" viewBox="0 0 12 12" fill="none" xmlns="http://www.w3.org/2000/svg">
<path d="M0.285714 1.99326H2.31143C2.38103 2.39124 2.5885 2.75189 2.89735 3.01177C3.2062 3.27166 3.59664 3.41413 4 3.41413C4.40336 3.41413 4.7938 3.27166 5.10265 3.01177C5.4115 2.75189 5.61897 2.39124 5.68857 1.99326H11.7143C11.7901 1.99326 11.8627 1.96311 11.9163 1.90944C11.9699 1.85576 12 1.78297 12 1.70706C12 1.63116 11.9699 1.55837 11.9163 1.50469C11.8627 1.45102 11.7901 1.42087 11.7143 1.42087H5.68857C5.61897 1.02289 5.4115 0.662239 5.10265 0.402356C4.7938 0.142472 4.40336 0 4 0C3.59664 0 3.2062 0.142472 2.89735 0.402356C2.5885 0.662239 2.38103 1.02289 2.31143 1.42087H0.285714C0.209938 1.42087 0.137266 1.45102 0.0836838 1.50469C0.0301019 1.55837 0 1.63116 0 1.70706C0 1.78297 0.0301019 1.85576 0.0836838 1.90944C0.137266 1.96311 0.209938 1.99326 0.285714 1.99326ZM4 0.562281C4.22604 0.562281 4.447 0.629422 4.63494 0.755212C4.82288 0.881002 4.96936 1.05979 5.05586 1.26897C5.14236 1.47816 5.165 1.70833 5.1209 1.9304C5.0768 2.15247 4.96795 2.35645 4.80812 2.51655C4.64829 2.67665 4.44465 2.78568 4.22296 2.82985C4.00127 2.87402 3.77148 2.85135 3.56265 2.76471C3.35382 2.67806 3.17533 2.53133 3.04975 2.34307C2.92417 2.15481 2.85714 1.93348 2.85714 1.70706C2.85714 1.40345 2.97755 1.11227 3.19188 0.897581C3.40621 0.682892 3.6969 0.562281 4 0.562281ZM11.7143 5.71381H9.68857C9.61897 5.31583 9.4115 4.95518 9.10265 4.69529C8.7938 4.43541 8.40336 4.29294 8 4.29294C7.59664 4.29294 7.2062 4.43541 6.89735 4.69529C6.5885 4.95518 6.38103 5.31583 6.31143 5.71381H0.285714C0.209938 5.71381 0.137266 5.74396 0.0836838 5.79763C0.0301019 5.8513 0 5.9241 0 6C0 6.0759 0.0301019 6.1487 0.0836838 6.20237C0.137266 6.25604 0.209938 6.2862 0.285714 6.2862H6.31143C6.38103 6.68418 6.5885 7.04483 6.89735 7.30471C7.2062 7.56459 7.59664 7.70707 8 7.70707C8.40336 7.70707 8.7938 7.56459 9.10265 7.30471C9.4115 7.04483 9.61897 6.68418 9.68857 6.2862H11.7143C11.7901 6.2862 11.8627 6.25604 11.9163 6.20237C11.9699 6.1487 12 6.0759 12 6C12 5.9241 11.9699 5.8513 11.9163 5.79763C11.8627 5.74396 11.7901 5.71381 11.7143 5.71381ZM8 7.14478C7.77397 7.14478 7.553 7.07764 7.36506 6.95185C7.17712 6.82606 7.03064 6.64727 6.94414 6.43809C6.85764 6.22891 6.83501 5.99873 6.8791 5.77666C6.9232 5.5546 7.03205 5.35062 7.19188 5.19052C7.35171 5.03042 7.55535 4.92139 7.77704 4.87721C7.99873 4.83304 8.22852 4.85571 8.43735 4.94236C8.64618 5.029 8.82467 5.17574 8.95025 5.36399C9.07583 5.55225 9.14286 5.77358 9.14286 6C9.14286 6.30362 9.02245 6.5948 8.80812 6.80948C8.59379 7.02417 8.30311 7.14478 8 7.14478ZM11.7143 10.0067H5.68857C5.61897 9.60876 5.4115 9.24811 5.10265 8.98823C4.7938 8.72834 4.40336 8.58587 4 8.58587C3.59664 8.58587 3.2062 8.72834 2.89735 8.98823C2.5885 9.24811 2.38103 9.60876 2.31143 10.0067H0.285714C0.209938 10.0067 0.137266 10.0369 0.0836838 10.0906C0.0301019 10.1442 0 10.217 0 10.2929C0 10.3688 0.0301019 10.4416 0.0836838 10.4953C0.137266 10.549 0.209938 10.5791 0.285714 10.5791H2.31143C2.38103 10.9771 2.5885 11.3378 2.89735 11.5976C3.2062 11.8575 3.59664 12 4 12C4.40336 12 4.7938 11.8575 5.10265 11.5976C5.4115 11.3378 5.61897 10.9771 5.68857 10.5791H11.7143C11.7901 10.5791 11.8627 10.549 11.9163 10.4953C11.9699 10.4416 12 10.3688 12 10.2929C12 10.217 11.9699 10.1442 11.9163 10.0906C11.8627 10.0369 11.7901 10.0067 11.7143 10.0067ZM4 11.4377C3.77396 11.4377 3.553 11.3706 3.36506 11.2448C3.17712 11.119 3.03064 10.9402 2.94414 10.731C2.85764 10.5218 2.83501 10.2917 2.8791 10.0696C2.9232 9.84753 3.03205 9.64355 3.19188 9.48345C3.35171 9.32335 3.55535 9.21432 3.77704 9.17015C3.99873 9.12598 4.22852 9.14865 4.43735 9.2353C4.64618 9.32194 4.82467 9.46867 4.95025 9.65693C5.07583 9.84519 5.14286 10.0665 5.14286 10.2929C5.14286 10.5966 5.02245 10.8877 4.80812 11.1024C4.59379 11.3171 4.30311 11.4377 4 11.4377Z" fill="black"/>
</svg>
