<svg width="20" height="20" viewBox="0 0 20 20" fill="none" xmlns="http://www.w3.org/2000/svg">
<g clip-path="url(#clip0_4816_7160)">
<path d="M10.8016 0.00250938C11.3016 0.315009 11.3016 0.315009 11.6016 0.802509C11.6516 1.55251 11.6516 1.55251 11.6016 2.20251C11.7336 2.21076 11.8656 2.21901 12.0016 2.22751C13.2144 2.58125 14.129 3.34509 14.7766 4.42751C15.316 5.60858 15.3563 6.84317 15.4551 8.12023C15.5975 9.85929 15.9235 11.5245 17.2016 12.8025C17.3586 12.917 17.3586 12.917 17.5188 13.0338C18.1531 13.4984 18.3839 13.72 18.5516 14.5025C18.3984 15.2173 18.245 15.5598 17.6469 15.9892C16.0399 16.7589 14.1593 16.9119 12.4016 16.8025C12.4132 16.9185 12.4248 17.0345 12.4367 17.1541C12.487 18.0243 12.5005 18.6125 11.9266 19.3025C11.124 20.0669 10.589 20.0806 9.51172 20.0744C8.68983 19.9586 8.35886 19.6027 7.80156 19.0025C7.56102 18.5214 7.58142 18.2125 7.58906 17.6775C7.59087 17.5141 7.59267 17.3506 7.59453 17.1822C7.59685 17.0569 7.59917 16.9316 7.60156 16.8025C7.43373 16.813 7.43373 16.813 7.2625 16.8236C5.55955 16.8811 3.45557 16.7786 2.02656 15.7525C1.60156 15.2025 1.60156 15.2025 1.41406 14.54C1.6651 13.5526 2.18269 13.2495 2.94922 12.6166C4.45113 11.2418 4.40203 9.10179 4.60156 7.20251C4.796 5.4547 5.19325 4.0164 6.61484 2.86892C7.62845 2.20251 7.62845 2.20251 8.40156 2.20251C8.38506 1.98801 8.36856 1.77351 8.35156 1.55251C8.40156 0.802509 8.40156 0.802509 8.70156 0.315009C9.40582 -0.125148 9.99244 -0.15832 10.8016 0.00250938ZM9.60156 1.00251C9.53556 1.33251 9.46956 1.66251 9.40156 2.00251C9.89656 2.10151 9.89656 2.10151 10.4016 2.20251C10.4676 1.87251 10.5336 1.54251 10.6016 1.20251C10.2716 1.13651 9.94156 1.07051 9.60156 1.00251ZM6.42656 4.54001C5.64308 5.76132 5.60488 7.05582 5.52656 8.47751C5.376 10.608 4.81143 12.3458 3.20156 13.8025C3.00356 13.9345 2.80556 14.0665 2.60156 14.2025C2.64502 14.5947 2.64502 14.5947 2.80156 15.0025C3.12921 15.2226 3.12921 15.2226 3.53906 15.34C3.67184 15.3862 3.80461 15.4323 3.94141 15.4799C7.65878 16.4707 13.1526 16.5475 16.8016 15.2025C16.9996 15.0705 17.1976 14.9385 17.4016 14.8025C17.4016 14.6045 17.4016 14.4065 17.4016 14.2025C17.0737 13.8769 17.0737 13.8769 16.6516 13.565C15.1998 12.3467 14.6668 10.6975 14.4961 8.83298C14.453 8.30934 14.4138 7.78562 14.377 7.26149C14.2573 5.83706 13.9498 4.81053 12.8391 3.84001C12.1511 3.27417 11.7128 3.02038 10.8016 3.00251C10.6342 2.98833 10.4669 2.97415 10.2945 2.95954C8.54593 2.86093 7.67551 3.37251 6.42656 4.54001ZM8.60156 17.0025C8.52239 17.7151 8.51623 18.0778 8.92656 18.6775C9.54394 19.0999 9.86722 19.1249 10.6016 19.0025C11.1016 18.7025 11.1016 18.7025 11.4016 18.2025C11.4851 17.5772 11.4851 17.5772 11.4016 17.0025C11.1852 16.7414 11.1852 16.7414 10.6641 16.7759C10.4454 16.7765 10.2268 16.777 10.0016 16.7775C9.78294 16.777 9.56431 16.7765 9.33906 16.7759C8.8179 16.7414 8.8179 16.7414 8.60156 17.0025Z" fill="black"/>
</g>
<defs>
<clipPath id="clip0_4816_7160">
<rect width="20" height="20" fill="white"/>
</clipPath>
</defs>
</svg>
